<svg width="24" height="24" viewBox="0 0 24 24" fill="none" xmlns="http://www.w3.org/2000/svg">
<g clip-path="url(#clip0_1_259)">
<path fill-rule="evenodd" clip-rule="evenodd" d="M19.4 16.296C18.5934 17.1229 17.6394 17.7917 16.587 18.268C15.517 18.756 14.433 19 13.334 19C12.089 19 10.934 18.752 9.87302 18.256C8.82676 17.7728 7.89979 17.065 7.15802 16.183C6.41319 15.301 5.87963 14.2606 5.59802 13.141H3.40002V11.744H5.35602C5.33029 11.4814 5.31561 11.2178 5.31202 10.954C5.31202 10.73 5.31902 10.564 5.33402 10.459H3.40002V9.062H5.53202C5.79975 7.91226 6.33029 6.84021 7.08202 5.93C7.83609 5.01354 8.78606 4.27782 9.86202 3.777C10.96 3.26 12.155 3 13.444 3C14.543 3 15.62 3.225 16.674 3.676C17.692 4.10113 18.6122 4.73002 19.378 5.524L17.664 7.732C17.1195 7.11071 16.4588 6.60184 15.719 6.234C14.979 5.866 14.235 5.682 13.488 5.682C12.374 5.682 11.378 5.993 10.498 6.617C9.63868 7.21508 8.99239 8.07155 8.65302 9.062H14.257V10.459H8.34502C8.30637 10.8875 8.32115 11.3191 8.38902 11.744H14.257V13.141H8.78502C9.18207 14.0419 9.83557 14.806 10.664 15.338C11.5032 15.8856 12.486 16.172 13.488 16.161C14.2466 16.1552 14.9955 15.99 15.686 15.676C16.4246 15.349 17.0955 14.8867 17.664 14.313L19.4 16.296Z" fill="white"/>
</g>
<defs>
<clipPath id="clip0_1_259">
<rect width="24" height="24" fill="white"/>
</clipPath>
</defs>
</svg>
