<svg width="24" height="24" viewBox="0 0 24 24" fill="none" xmlns="http://www.w3.org/2000/svg">
<g clip-path="url(#clip0_1_272)">
<path d="M6.6 10.182V7.455C6.6 4.442 9.018 2 12 2C14.982 2 17.4 4.442 17.4 7.455V10.182H18.3C19.791 10.182 21 11.402 21 12.909V19.273C21 20.779 19.791 22 18.3 22H5.7C4.209 22 3 20.779 3 19.273V12.909C3 11.403 4.209 10.182 5.7 10.182H6.6ZM8.4 10.182H15.6V7.455C15.6 5.446 13.988 3.818 12 3.818C10.012 3.818 8.4 5.446 8.4 7.455V10.182ZM5.7 12C5.203 12 4.8 12.407 4.8 12.91V19.273C4.8 19.775 5.203 20.182 5.7 20.182H18.3C18.797 20.182 19.2 19.775 19.2 19.272V12.91C19.2011 12.6702 19.1069 12.4397 18.9381 12.2692C18.7694 12.0988 18.5398 12.0023 18.3 12.001H5.7V12Z" fill="white"/>
</g>
<defs>
<clipPath id="clip0_1_272">
<rect width="24" height="24" fill="white"/>
</clipPath>
</defs>
</svg>
