<svg width="24" height="24" viewBox="0 0 24 24" fill="none" xmlns="http://www.w3.org/2000/svg">
<g clip-path="url(#clip0_1_265)">
<path d="M11.5556 0C5.18356 0 0 5.18356 0 11.5556C0 17.9276 5.18356 23.1111 11.5556 23.1111C17.9276 23.1111 23.1111 17.9276 23.1111 11.5556C23.1111 5.18356 17.9276 0 11.5556 0ZM11.5556 22.2222C5.67422 22.2222 0.888889 17.4369 0.888889 11.5556C0.888889 5.67422 5.67422 0.888889 11.5556 0.888889C17.4369 0.888889 22.2222 5.67422 22.2222 11.5556C22.2222 17.4369 17.4369 22.2222 11.5556 22.2222Z" fill="white" stroke="white" stroke-width="0.888889" stroke-linecap="round" stroke-linejoin="round"/>
<path fill-rule="evenodd" clip-rule="evenodd" d="M11.2244 4.44446C13.6351 4.44446 16.0084 5.55468 16.0084 8.21024C16.0084 10.6591 13.2022 11.6009 12.5995 12.4858C12.1471 13.144 12.2982 14.0689 11.0551 14.0689C10.2453 14.0689 9.84975 13.4102 9.84975 12.8076C9.84975 10.5649 13.1449 10.0573 13.1449 8.21068C13.1449 7.19424 12.4684 6.59157 11.3377 6.59157C8.92708 6.59157 9.86842 9.0769 8.04264 9.0769C7.38353 9.0769 6.81775 8.68135 6.81775 7.92846C6.8173 6.08135 8.92619 4.44446 11.2244 4.44446ZM11.1306 15.2916C11.5397 15.2936 11.9315 15.457 12.2207 15.7463C12.5099 16.0356 12.6732 16.4274 12.6751 16.8365C12.6734 17.2456 12.5102 17.6375 12.2209 17.9269C11.9317 18.2162 11.5398 18.3796 11.1306 18.3813C10.7214 18.3797 10.3294 18.2164 10.04 17.927C9.75068 17.6377 9.58739 17.2457 9.58575 16.8365C9.5875 16.4273 9.75083 16.0353 10.0402 15.746C10.3295 15.4567 10.7214 15.2933 11.1306 15.2916Z" fill="white"/>
</g>
<defs>
<clipPath id="clip0_1_265">
<rect width="24" height="24" fill="white"/>
</clipPath>
</defs>
</svg>
